<svg width="64" height="64" viewBox="0 0 64 64" fill="none" xmlns="http://www.w3.org/2000/svg">
<g id="Layer_1" clip-path="url(#clip0_3_579)">
<path id="Vector" d="M41.3333 16.32C37.6587 16.32 34.6667 19.3718 34.6667 23.12C34.6667 26.8682 37.6587 29.92 41.3333 29.92C45.008 29.92 48 26.8682 48 23.12C48 19.3718 45.008 16.32 41.3333 16.32ZM41.3333 27.2C39.128 27.2 37.3333 25.3694 37.3333 23.12C37.3333 20.8706 39.128 19.04 41.3333 19.04C43.5387 19.04 45.3333 20.8706 45.3333 23.12C45.3333 25.3694 43.5387 27.2 41.3333 27.2ZM64 6.8C64 3.05184 61.008 0 57.296 0C44.1173 0.38352 32.112 6.94144 22.3333 19.0427C18.104 19.0944 13.8853 20.1416 10.1067 22.0755C3.968 25.2171 0 32.0334 0 39.44V40.8H13.3333C16.1813 40.8 18.8613 41.9315 20.8773 43.9851C22.8907 46.0414 24 48.7723 24 51.68V65.28H25.3333C32.5947 65.28 39.2773 61.2354 42.3573 54.9739C44.256 51.1197 45.28 46.8139 45.3307 42.5C57.192 32.5258 63.624 20.2776 64 6.8ZM11.3013 24.5072C14.0587 23.0955 17.0747 22.2088 20.1467 21.8933C19.8853 22.2523 19.624 22.6141 19.3653 22.9813C15.224 28.8755 12.1333 35.7218 11.12 38.08H2.71733C3.16 32.232 6.432 26.9987 11.3013 24.5072ZM39.9733 53.7526C37.528 58.7193 32.4 62.0568 26.6667 62.5083V53.9376C28.9813 52.904 35.6907 49.7515 41.472 45.5274C41.832 45.2635 42.1867 44.9997 42.5387 44.7331C42.2293 47.8666 41.36 50.9429 39.976 53.7554L39.9733 53.7526ZM39.9173 43.316C35.1093 46.8302 29.48 49.64 26.648 50.9619C26.4773 47.6 25.112 44.4638 22.7627 42.0648C20.4107 39.6658 17.336 38.2758 14.04 38.1018C15.336 35.2131 18.0907 29.4712 21.536 24.567C28.344 14.8757 40.088 3.22048 57.3333 2.72C59.5387 2.72 61.3333 4.55056 61.3333 6.76192C60.8427 24.3902 49.416 36.3691 39.9173 43.316ZM4.61867 50.951C2.352 53.2603 0.834667 61.5074 0.554667 63.1366L0.224 65.0488L2.09867 64.7115C3.696 64.4259 11.7813 62.8782 14.0453 60.5662C15.304 59.2824 15.9973 57.5742 15.9973 55.7573C15.9973 53.9403 15.304 52.2322 14.0453 50.9483C11.5307 48.3806 7.13333 48.3834 4.61867 50.951ZM12.16 58.6432C11.1307 59.6931 7.00267 60.9035 3.55467 61.6515C4.288 58.1346 5.47467 53.924 6.504 52.8741C7.25867 52.1043 8.264 51.68 9.33333 51.68C10.4027 51.68 11.4053 52.1043 12.1627 52.8741C12.92 53.6438 13.3333 54.6693 13.3333 55.76C13.3333 56.8507 12.9173 57.8734 12.1627 58.6459L12.16 58.6432Z" fill="#00B74F"/>
</g>
<defs>
<clipPath id="clip0_3_579">
<rect width="64" height="64" fill="white"/>
</clipPath>
</defs>
</svg>
