<svg width="64" height="64" viewBox="0 0 64 64" fill="none" xmlns="http://www.w3.org/2000/svg">
<g id="Layer_1">
<path id="Vector" d="M62.0131 25.04C62.5098 27.3067 62.7451 29.6533 62.7451 32C62.7451 49.6533 48.6797 64 31.3726 64C14.0654 64 0 49.6533 0 32C0 14.3467 14.0654 0 31.3726 0C33.6732 0 35.9739 0.266667 38.1961 0.746667C38.902 0.906667 39.3464 1.62667 39.1895 2.34667C39.0327 3.06667 38.3268 3.52 37.6209 3.36C35.5817 2.90667 33.4641 2.66667 31.3726 2.66667C15.5033 2.66667 2.61438 15.8133 2.61438 32C2.61438 48.1867 15.5033 61.3333 31.3726 61.3333C47.2418 61.3333 60.1307 48.1867 60.1307 32C60.1307 29.84 59.8954 27.7067 59.451 25.6267C59.2941 24.9067 59.7386 24.1867 60.4445 24.0267C61.1503 23.8667 61.8562 24.32 62.0131 25.04ZM35.0327 13.7067C35.7386 13.84 36.4183 13.3867 36.5752 12.6667C36.7059 11.9467 36.2614 11.2533 35.5556 11.0933C34.1961 10.8 32.7843 10.6667 31.3726 10.6667C19.8431 10.6667 10.4575 20.24 10.4575 32C10.4575 43.76 19.8431 53.3333 31.3726 53.3333C42.902 53.3333 52.2876 43.76 52.2876 32C52.2876 30.56 52.1569 29.12 51.8693 27.7333C51.7386 27.0133 51.0327 26.56 50.3268 26.6933C49.6209 26.8533 49.1503 27.5467 49.3072 28.2667C49.5425 29.4933 49.6732 30.7467 49.6732 32C49.6732 42.2933 41.4641 50.6667 31.3726 50.6667C21.281 50.6667 13.0719 42.2933 13.0719 32C13.0719 21.7067 21.281 13.3333 31.3726 13.3333C32.6013 13.3333 33.8301 13.4667 35.0327 13.7067ZM30.2484 24.08C30.9543 23.9733 31.451 23.3067 31.3464 22.56C31.2418 21.8133 30.5882 21.3067 29.8562 21.44C24.732 22.1867 20.8889 26.72 20.8889 32C20.8889 37.8933 25.5686 42.6667 31.3464 42.6667C36.5229 42.6667 40.9673 38.7467 41.6994 33.52C41.8039 32.8 41.3072 32.1067 40.6013 32C39.8954 31.8933 39.2157 32.4 39.1111 33.12C38.5621 37.04 35.2157 39.9733 31.3464 39.9733C27.0327 39.9733 23.5033 36.3733 23.5033 31.9733C23.5033 28.0267 26.3791 24.6133 30.2222 24.0533L30.2484 24.08ZM41.8301 19.44V11.5467C41.8301 9.76 42.5098 8.08 43.7386 6.82667L50.0654 0.4C50.4314 0.0266667 51.0065 -0.106667 51.4771 0.106667C51.9739 0.32 52.2876 0.8 52.2876 1.33333V10.6667H61.4379C61.9608 10.6667 62.4314 10.9867 62.6405 11.4933C62.8497 12 62.719 12.56 62.353 12.9333L56.0523 19.36C54.8235 20.6133 53.1765 21.3067 51.4248 21.3067H43.6863L32.3137 32.9067C32.0523 33.1733 31.7124 33.3067 31.3987 33.3067C31.085 33.3067 30.719 33.1733 30.4837 32.9067C29.9608 32.3733 29.9608 31.5467 30.4837 31.0133L41.8562 19.4133L41.8301 19.44ZM44.4445 18.6667H51.4248C52.4706 18.6667 53.4641 18.24 54.1961 17.4933L58.2745 13.3333H50.9804C50.2484 13.3333 49.6732 12.7467 49.6732 12V4.56L45.5948 8.72C44.8628 9.46667 44.4445 10.48 44.4445 11.5467V18.6667Z" fill="#00B74F"/>
</g>
</svg>
