<svg width="64" height="64" viewBox="0 0 64 64" fill="none" xmlns="http://www.w3.org/2000/svg">
<g id="Layer_1" clip-path="url(#clip0_3_581)">
<path id="Vector" d="M51.2597 35.0332C51.8008 33.9208 51.8008 32.642 51.2597 31.5269C49.4133 27.7321 42.1638 19.4103 32.6274 19.4103C23.091 19.4103 15.8414 27.7321 13.9951 31.5269C13.4539 32.642 13.4539 33.918 13.9951 35.0332C15.8414 38.8307 23.0937 47.1498 32.6274 47.1498C42.1611 47.1498 49.4133 38.8279 51.2597 35.0332ZM32.6274 44.3758C23.5396 44.3758 17.454 35.8986 16.4342 33.8015C16.2711 33.4714 16.2711 33.0942 16.4342 32.7613C17.8047 29.9374 24.1923 22.187 32.6274 22.187C41.0625 22.187 47.45 29.9402 48.8205 32.7613C48.9864 33.0969 48.9864 33.4659 48.8205 33.8015C47.45 36.6254 41.0625 44.3758 32.6274 44.3758ZM32.6274 26.3451C28.8775 26.3451 25.8293 29.4547 25.8293 33.28C25.8293 37.1053 28.8775 40.2149 32.6274 40.2149C36.3772 40.2149 39.4255 37.1053 39.4255 33.28C39.4255 29.4547 36.3772 26.3451 32.6274 26.3451ZM32.6274 37.4409C30.3786 37.4409 28.5485 35.5741 28.5485 33.28C28.5485 30.986 30.3786 29.1191 32.6274 29.1191C34.8762 29.1191 36.7063 30.986 36.7063 33.28C36.7063 35.5741 34.8762 37.4409 32.6274 37.4409ZM14.3894 16.6363L0.184 2.1452L2.10651 0.184021L16.3119 14.6751V2.76657H19.0311V15.2493C19.0311 17.5434 17.2011 19.4103 14.9523 19.4103H2.71562V16.6363H14.3894ZM46.2563 15.2826L46.2236 2.76934L48.9429 2.76379L48.9728 14.6446L63.1483 0.184021L65.0708 2.1452L50.8654 16.6363H62.5391V19.4103H50.3025C48.0727 19.4103 46.2563 17.5573 46.2563 15.2826ZM19.0311 51.3107V63.7935H16.3119V51.8849L2.10651 66.376L0.184 64.4148L14.3894 49.9237H2.71562V47.1498H14.9523C17.2011 47.1498 19.0311 49.0166 19.0311 51.3107ZM50.8654 49.9237L65.0708 64.4148L63.1483 66.376L48.9728 51.9154L48.9429 63.7962L46.2236 63.7907L46.2563 51.2746C46.2563 49.0028 48.0727 47.1498 50.3025 47.1498H62.5391V49.9237H50.8654Z" fill="#00B74F"/>
</g>
<defs>
<clipPath id="clip0_3_581">
<rect width="64" height="64" fill="white"/>
</clipPath>
</defs>
</svg>
